REM MD5 eb50b26cfbc8ce56434ef6f2bed9ab50
FILE "Euro Demo 24 (France).bin" BINARY
  TRACK 01 MODE2/2352
    INDEX 01 00:00:00
  TRACK 02 AUDIO
    INDEX 00 40:41:66
    INDEX 01 40:43:66
  TRACK 03 AUDIO
    INDEX 00 44:23:69
    INDEX 01 44:25:69
  TRACK 04 AUDIO
    INDEX 00 48:40:02
    INDEX 01 48:42:02
REM LEADOUT 51:43:33
